<svg width="24" height="24" xmlns="http://www.w3.org/2000/svg" xmlns:xlink="http://www.w3.org/1999/xlink" overflow="hidden"><defs><clipPath id="clip0"><rect x="628" y="348" width="24" height="24"/></clipPath></defs><g clip-path="url(#clip0)" transform="translate(-628 -348)"><path d="M15.08 9.59 12 12.67 8.92 9.59 7.5 11 12 15.5 16.5 11 15.08 9.59ZM12 2C6.48 2 2 6.48 2 12 2 17.52 6.48 22 12 22 17.52 22 22 17.52 22 12 22 6.48 17.52 2 12 2ZM12 20C7.58 20 4 16.42 4 12 4 7.58 7.58 4 12 4 16.42 4 20 7.58 20 12 20 16.42 16.42 20 12 20Z" transform="matrix(1 0 0 -1 628 372)"/></g></svg>